<svg width="100" height="30" viewBox="0 0 100 30" fill="none" xmlns="http://www.w3.org/2000/svg">
<path d="M15.2742 0.180664C7.05899 0.180664 0.398926 6.84054 0.398926 15.0558C0.398926 23.2713 7.05899 29.9307 15.2742 29.9307C23.4903 29.9307 30.1497 23.2713 30.1497 15.0558C30.1497 6.84108 23.4903 0.181375 15.274 0.181375L15.2742 0.180664ZM22.0959 21.6348C21.8295 22.0718 21.2575 22.2103 20.8205 21.9421C17.328 19.8088 12.9313 19.3256 7.75335 20.5086C7.25438 20.6223 6.75702 20.3097 6.64334 19.8106C6.52912 19.3114 6.8405 18.814 7.34071 18.7004C13.0071 17.4058 17.8676 17.9632 21.7886 20.3594C22.2256 20.6276 22.3641 21.1978 22.0959 21.6348ZM23.9166 17.5845C23.5809 18.1302 22.8668 18.3025 22.3215 17.9668C18.323 15.5091 12.228 14.7973 7.49862 16.2329C6.88527 16.4182 6.23745 16.0725 6.05129 15.4602C5.86656 14.8469 6.2124 14.2003 6.8247 14.0138C12.227 12.3746 18.943 13.1686 23.5347 15.9903C24.08 16.326 24.2523 17.0401 23.9166 17.5847V17.5845ZM24.0729 13.3668C19.2787 10.5193 11.3688 10.2574 6.79148 11.6467C6.05645 11.8696 5.27914 11.4547 5.05639 10.7196C4.83364 9.98424 5.24823 9.20746 5.98379 8.984C11.2383 7.38889 19.9732 7.69708 25.4929 10.9738C26.1555 11.3662 26.3722 12.2201 25.9796 12.8803C25.5888 13.5415 24.7327 13.7594 24.0736 13.3668H24.0729ZM40.8696 13.9125C38.3011 13.3001 37.8446 12.8702 37.8446 11.9669C37.8446 11.1136 38.6475 10.5393 39.8429 10.5393C41.0011 10.5393 42.1486 10.9754 43.3529 11.8732C43.3884 11.9003 43.4346 11.9112 43.479 11.9041C43.5252 11.8973 43.5643 11.8726 43.5909 11.8355L44.845 10.0677C44.8965 9.9949 44.8823 9.89454 44.813 9.83894C43.3795 8.68914 41.7667 8.13014 39.8802 8.13014C37.1074 8.13014 35.1695 9.79435 35.1695 12.1755C35.1695 14.7289 36.841 15.633 39.7293 16.331C42.1859 16.8971 42.6015 17.3713 42.6015 18.219C42.6015 19.1586 41.7631 19.7431 40.4131 19.7431C38.9139 19.7431 37.6901 19.2368 36.3223 18.0538C36.2886 18.0236 36.2424 18.0112 36.1997 18.0129C36.1536 18.0165 36.1127 18.0378 36.0843 18.0716L34.6774 19.7448C34.6188 19.8159 34.6259 19.9189 34.6934 19.9793C36.285 21.4003 38.2425 22.1499 40.3563 22.1499C43.344 22.1499 45.2749 20.5175 45.2749 17.9898C45.2802 15.857 44.003 14.6758 40.875 13.9148L40.8696 13.9125ZM52.0355 11.3795C50.7405 11.3795 49.6783 11.8897 48.8008 12.935V11.7584C48.8008 11.6655 48.7262 11.5898 48.6339 11.5898H46.3335C46.2412 11.5898 46.1666 11.6655 46.1666 11.7584V24.8322C46.1666 24.9245 46.2412 25.0009 46.3335 25.0009H48.6339C48.7262 25.0009 48.8008 24.9245 48.8008 24.8322V20.7058C49.6783 21.6881 50.7405 22.1695 52.0355 22.1695C54.4424 22.1695 56.8794 20.3168 56.8794 16.775C56.883 13.2326 54.4459 11.3793 52.0372 11.3793L52.0355 11.3795ZM54.2043 16.775C54.2043 18.5778 53.0941 19.8372 51.5026 19.8372C49.9306 19.8372 48.744 18.521 48.744 16.775C48.744 15.0289 49.9306 13.713 51.5026 13.713C53.0675 13.7129 54.2043 15.0003 54.2043 16.7749V16.775ZM63.1231 11.3795C60.0235 11.3795 57.5953 13.7662 57.5953 16.8136C57.5953 19.8283 60.0075 22.189 63.0858 22.189C66.1961 22.189 68.6314 19.8106 68.6314 16.775C68.6314 13.7498 66.2121 11.3799 63.1231 11.3799V11.3795ZM63.1231 19.855C61.4747 19.855 60.2313 18.5298 60.2313 16.7741C60.2313 15.0105 61.4321 13.7306 63.0858 13.7306C64.7449 13.7306 65.9954 15.0552 65.9954 16.8127C65.9954 18.576 64.7875 19.855 63.1231 19.855ZM75.2499 11.5898H72.7187V9.00248C72.7187 8.90976 72.6441 8.83409 72.5518 8.83409H70.2514C70.1591 8.83409 70.0827 8.90976 70.0827 9.00248V11.5898H68.9778C68.8855 11.5898 68.8109 11.6655 68.8109 11.7584V13.7349C68.8109 13.8276 68.8855 13.9035 68.9778 13.9035H70.0827V19.0183C70.0827 21.0842 71.1112 22.1322 73.1415 22.1322C73.9657 22.1322 74.6496 21.9616 75.2944 21.5957C75.3476 21.5673 75.3796 21.5105 75.3796 21.4501V19.5672C75.3796 19.5104 75.3494 19.4553 75.2997 19.4251C75.2499 19.3931 75.1878 19.3913 75.1363 19.418C74.694 19.64 74.2659 19.7431 73.7863 19.7431C73.0491 19.7431 72.7187 19.4073 72.7187 18.6577V13.9044H75.2499C75.3423 13.9044 75.4169 13.8287 75.4169 13.7358V11.7595C75.4205 11.6666 75.3459 11.5909 75.2517 11.5909L75.2499 11.5898ZM84.0675 11.6V11.2822C84.0675 10.3473 84.4263 9.93042 85.2292 9.93042C85.7088 9.93042 86.0943 10.0256 86.5259 10.1695C86.5792 10.1862 86.6343 10.1779 86.6769 10.1461C86.7213 10.1143 86.7462 10.0633 86.7462 10.0093V8.07134C86.7462 7.99727 86.7 7.93173 86.6272 7.90988C86.1724 7.77434 85.5898 7.63526 84.7159 7.63526C82.5932 7.63526 81.4688 8.83142 81.4688 11.0932V11.5799H80.3639C80.2715 11.5799 80.1952 11.6556 80.1952 11.7483V13.7349C80.1952 13.8276 80.2715 13.9035 80.3639 13.9035H81.4688V21.7911C81.4688 21.8853 81.5452 21.9599 81.6375 21.9599H83.9361C84.0302 21.9599 84.1048 21.8853 84.1048 21.7911V13.904H86.2524L89.5421 21.7911C89.169 22.6189 88.8013 22.7841 88.3004 22.7841C87.8954 22.7841 87.4673 22.6633 87.0322 22.4235C86.9913 22.4022 86.9416 22.3986 86.8989 22.4111C86.8545 22.427 86.8172 22.459 86.7995 22.5016L86.0197 24.2122C85.9824 24.2939 86.0143 24.3881 86.0925 24.4307C86.906 24.8712 87.6396 25.0595 88.5473 25.0595C90.2455 25.0595 91.1851 24.2673 92.0111 22.1393L96.0007 11.8302C96.022 11.7783 96.0149 11.7197 95.9829 11.6737C95.9527 11.628 95.9012 11.6005 95.8462 11.6005H93.4517C93.3789 11.6005 93.3149 11.6461 93.2918 11.7135L90.8388 18.7181L88.153 11.7088C88.1281 11.6437 88.066 11.6005 87.9967 11.6005H84.0675V11.6ZM78.9553 11.5898H76.655C76.5626 11.5898 76.4863 11.6655 76.4863 11.7584V21.7911C76.4863 21.8853 76.5626 21.9599 76.655 21.9599H78.9553C79.0477 21.9599 79.1241 21.8853 79.1241 21.7911V11.7591C79.1241 11.6662 79.0495 11.5905 78.9553 11.5905V11.5898ZM77.8185 7.02137C76.9072 7.02137 76.1683 7.75889 76.1683 8.66996C76.1683 9.58155 76.9072 10.32 77.8185 10.32C78.7297 10.32 79.4669 9.58155 79.4669 8.66996C79.4669 7.75907 78.7279 7.02137 77.8185 7.02137ZM97.9653 14.8158C97.0558 14.8158 96.3471 14.0848 96.3471 13.1972C96.3471 12.3096 97.0647 11.5703 97.9742 11.5703C98.8836 11.5703 99.5924 12.3011 99.5924 13.188C99.5924 14.0756 98.8748 14.8158 97.9653 14.8158ZM97.9742 11.7312C97.1446 11.7312 96.5176 12.3902 96.5176 13.1972C96.5176 14.0038 97.1411 14.654 97.9653 14.654C98.7948 14.654 99.4218 13.9955 99.4218 13.188C99.4218 12.3814 98.7984 11.7312 97.9742 11.7312ZM98.333 13.3544L98.7913 13.9953H98.404L97.9919 13.4073H97.6384V13.9953H97.3152V12.2964H98.0719C98.468 12.2964 98.7273 12.4984 98.7273 12.8384C98.7291 13.1169 98.5674 13.2871 98.3348 13.3544H98.333ZM98.0594 12.5879H97.6384V13.1253H98.0594C98.269 13.1253 98.3951 13.0224 98.3951 12.8563C98.3951 12.6816 98.269 12.5879 98.0594 12.5879Z" fill="#4C4C4D"/>
</svg>
